<svg xmlns="http://www.w3.org/2000/svg" xmlns:xlink="http://www.w3.org/1999/xlink" style="isolation:isolate" viewBox="0 0 20 20" version="1.1" shape-rendering="crispEdges"><path d="M3 20v-3h1v-1h4v-2H6v-1H5v-1H4v-1H3V9H2V7h1V4h1V3h1V2h10v1h1v1h1v3h1v2h-1v2h-1v1h-1v1h-1v1h-2v2h4v1h1v3H3z" fill="#EAC393"/><path d="M14 14v-1h1v-1h1v-1h1V9h1V7h-1V4h-1V3h-1V2H5v1H4v1H3v3H2v2h1v2h1v1h1v1h1v1h8z" fill="#FFF" fill-opacity=".1"/><path d="M6 8h1v1H6V8zm7 0h1v1h-1V8z" fill="#FFF"/><path d="M7 8h1v1H7V8zm5 0h1v1h-1V8z" fill="#588387"/><path d="M7 5v1H5v1H4V6h1V5h2zm7 0v1h-2v1h-1V6h1V5h2z" fill-rule="evenodd" fill="#a68d72"/><path d="M1 9v3h3V9H1zm1 1v1h1v-1H2zm14-1v3h3V9h-3zm1 1v1h1v-1h-1z" fill-rule="evenodd" fill="#ffd700"/><path d="M9 11v2h2v-1h-1v-1H9z" fill="#d15662"/><path d="M11 13v-1h-1v-1H9v1h1v1h1z" fill="#FFF" fill-opacity=".2"/><path d="M5 7h3v2H5V7zm7 0h3v2h-3V7z" fill-rule="evenodd" fill="#FFF" fill-opacity=".2"/><path d="M7 7h1v1H7V7zm7 0h1v1h-1V7z" fill-rule="evenodd" fill="#FFF" fill-opacity=".2"/><path d="M12 7v2h3V7h-3zM8 6H5v1H3v1h1v1h1v1h3V9h1V8h2v1h1v1h3V9h1V8h1V7h-2V6h-3v1H8V6zM5 7v2h3V7H5z" fill-rule="evenodd" fill="#a04b5d"/><path d="M3 7h1v1H3V7zm6 0h2v1H9V7zm7 0h1v1h-1V7z" fill-rule="evenodd" fill="#FFF" fill-opacity=".2"/><path d="M3 20v-3h1v-1h3v1h1v1h1v1h2v-1h1v-1h1v-1h3v1h1v3H3z" fill="#ffeead"/><path d="M6 16v1h1v1h1v1h1v1h2v-1h1v-1h1v-1h1v-1h-1v1h-1v1h-1v1H9v-1H8v-1H7v-1H6z" fill="#FFF" fill-opacity=".4"/><path d="M15 16v1h-1v1h-1v1h-1v1h-1v-1h1v-1h1v-1h1v-1h1zM5 16v1h1v1h1v1h1v1h1v-1H8v-1H7v-1H6v-1H5z" fill-rule="evenodd" fill="#FFF" fill-opacity=".2"/><path d="M3 20h1v-3h1v1h1v1h1v1h1v-1H7v-1H6v-1H5v-1H4v1H3v3zm14 0v-3h-1v-1h-1v1h-1v1h-1v1h-1v1h1v-1h1v-1h1v-1h1v3h1z" fill-rule="evenodd" fill="#FFF" fill-opacity=".1"/><path d="M2 9v3h1v1H2v2H1v1h1v-1h1v-1h1v-1h1v-1H4v-1H3V9H2zm16 0v3h-1v1h1v2h1v1h-1v-1h-1v-1h-1v-1h-1v-1h1v-1h1V9h1zm-1-2h1V3h-1V2h-1V1H4v1H3v1H2v4h1V6h1V5h2V4h9v1h1v1h1v1z" fill-rule="evenodd" fill="#bfa284"/></svg>