<svg xmlns="http://www.w3.org/2000/svg" xmlns:xlink="http://www.w3.org/1999/xlink" style="isolation:isolate" viewBox="0 0 20 20" version="1.1" shape-rendering="crispEdges"><path d="M3 20v-3h1v-1h4v-2H6v-1H5v-1H4v-1H3V9H2V7h1V4h1V3h1V2h10v1h1v1h1v3h1v2h-1v2h-1v1h-1v1h-1v1h-2v2h4v1h1v3H3z" fill="#EAC393"/><path d="M14 14v-1h1v-1h1v-1h1V9h1V7h-1V4h-1V3h-1V2H5v1H4v1H3v3H2v2h1v2h1v1h1v1h1v1h8z" fill="#FFF" fill-opacity=".1"/><path d="M5 7h3v2H5V7zm7 0h3v2h-3V7z" fill="#FFF"/><path d="M7 8h1v1H7V8zm5 0h1v1h-1V8z" fill="#697b94"/><path d="M6 5H4v2h1V6h1V5zm8 0h2v2h-1V6h-1V5z" fill-rule="evenodd" fill="#211b14"/><path d="M8 11v1h1v1h2v-1H9v-1H8z" fill="#d1100d"/><path d="M5 7h3v2H5V7zm7 0h3v2h-3V7z" fill-rule="evenodd" fill="#FFF" fill-opacity=".2"/><path d="M7 7h1v1H7V7zm7 0h1v1h-1V7z" fill-rule="evenodd" fill="#FFF" fill-opacity=".2"/><path d="M12 7v2h3V7h-3zM8 6H5v1H3v1h1v1h1v1h3V9h1V8h2v1h1v1h3V9h1V8h1V7h-2V6h-3v1H8V6zM5 7v2h3V7H5z" fill-rule="evenodd" fill="#4b4b4b"/><path d="M3 7h1v1H3V7zm6 0h2v1H9V7zm7 0h1v1h-1V7z" fill-rule="evenodd" fill="#FFF" fill-opacity=".2"/><path d="M3 20v-3h1v-1h5v1h2v-1h5v1h1v3H3z" fill="#ffcc5c"/><path d="M3 17h14v1H3v-1zm0 2v1h14v-1H3z" fill-rule="evenodd" fill="#FFF" fill-opacity=".2"/><path d="M2 9v3h1v1H2v2H1v1h1v-1h1v-1h1v-1h1v-1H4v-1H3V9H2zm0-2h1V6h1V5h2V4h9v1h1v1h1v1h1V3h-1V2h-1V1H4v1H3v1H2v4z" fill-rule="evenodd" fill="#3b3024"/></svg>